<?xml version="1.0" encoding="iso-8859-1"?>
<!-- Generator: Adobe Illustrator 19.0.0, SVG Export Plug-In . SVG Version: 6.00 Build 0)  -->
<svg version="1.1" id="Layer_1" xmlns="http://www.w3.org/2000/svg" xmlns:xlink="http://www.w3.org/1999/xlink" x="0px" y="0px"
	 viewBox="0 0 512 512" style="enable-background:new 0 0 512 512;" xml:space="preserve">
<g>
	<g>
		<g>
			<path d="M0,0v512h512V0H0z M469.333,469.333H42.667V42.667h426.667V469.333z"/>
			<path d="M164.418,377.752l176.915-176.915v76.497c0,11.782,9.551,21.333,21.333,21.333S384,289.115,384,277.333V149.335
				c0-0.703-0.037-1.406-0.106-2.107c-0.031-0.316-0.09-0.622-0.135-0.933c-0.054-0.377-0.098-0.755-0.172-1.13
				c-0.071-0.358-0.169-0.705-0.258-1.056c-0.081-0.323-0.152-0.648-0.249-0.968c-0.104-0.345-0.234-0.678-0.355-1.015
				c-0.115-0.319-0.22-0.641-0.35-0.956c-0.13-0.315-0.284-0.616-0.428-0.923c-0.153-0.324-0.297-0.651-0.467-0.969
				c-0.158-0.294-0.337-0.574-0.508-0.86c-0.186-0.311-0.362-0.626-0.565-0.93c-0.211-0.316-0.447-0.613-0.674-0.917
				c-0.19-0.253-0.366-0.513-0.568-0.76c-0.443-0.539-0.909-1.058-1.402-1.551c-0.004-0.004-0.007-0.008-0.011-0.012
				c-0.004-0.004-0.008-0.006-0.011-0.01c-0.494-0.493-1.012-0.96-1.552-1.403c-0.246-0.202-0.506-0.378-0.759-0.567
				c-0.304-0.228-0.602-0.463-0.918-0.675c-0.303-0.203-0.617-0.378-0.928-0.564c-0.286-0.171-0.566-0.351-0.861-0.509
				c-0.317-0.17-0.643-0.313-0.967-0.466c-0.308-0.145-0.61-0.299-0.925-0.43c-0.314-0.13-0.635-0.235-0.953-0.349
				c-0.338-0.122-0.672-0.251-1.018-0.356c-0.318-0.096-0.642-0.167-0.964-0.248c-0.353-0.089-0.701-0.188-1.061-0.259
				c-0.372-0.074-0.748-0.117-1.122-0.171c-0.314-0.045-0.622-0.105-0.941-0.136c-0.7-0.069-1.402-0.106-2.105-0.106h-128
				c-11.782,0-21.333,9.551-21.333,21.333c0,11.782,9.551,21.333,21.333,21.333h76.497L134.248,347.582
				c-8.331,8.331-8.331,21.839,0,30.17C142.58,386.083,156.087,386.083,164.418,377.752z"/>
		</g>
	</g>
</g>
<g>
</g>
<g>
</g>
<g>
</g>
<g>
</g>
<g>
</g>
<g>
</g>
<g>
</g>
<g>
</g>
<g>
</g>
<g>
</g>
<g>
</g>
<g>
</g>
<g>
</g>
<g>
</g>
<g>
</g>
</svg>
