<svg data-v-423bf9ae="" xmlns="http://www.w3.org/2000/svg" viewBox="0 0 166.1860129776496 163" class="iconAbove"><!----><!----><!----><g data-v-423bf9ae="" id="96a5b86a-dc13-41d7-b70b-857c78a46e91" fill="white" transform="matrix(3.691420316696167,0,0,3.691420316696167,-0.11536071449518204,106.92213439941406)"><path d="M6.47 13.65L6.47 13.65L6.47 13.65Q6.34 13.75 6.20 13.66L6.20 13.66L6.20 13.66Q6.06 13.57 5.93 13.38L5.93 13.38L5.93 13.38Q5.80 13.20 5.66 12.99L5.66 12.99L5.66 12.99Q5.53 12.78 5.40 12.63L5.40 12.63L5.40 12.63Q5.04 12.19 4.49 11.82L4.49 11.82L4.49 11.82Q3.95 11.45 3.21 11.30L3.21 11.30L3.21 11.30Q2.91 11.24 2.69 11.23L2.69 11.23L2.69 11.23Q2.46 11.23 2.27 11.29L2.27 11.29L2.27 11.29Q2.09 11.35 1.90 11.49L1.90 11.49L1.90 11.49Q1.72 11.62 1.51 11.84L1.51 11.84L1.51 11.84Q1.41 11.94 1.23 11.97L1.23 11.97L1.23 11.97Q1.04 12.00 0.88 11.89L0.88 11.89L0.88 11.89Q0.70 11.77 0.76 11.59L0.76 11.59L0.76 11.59Q0.83 11.41 0.94 11.24L0.94 11.24L0.94 11.24Q0.99 11.16 1.02 11.13L1.02 11.13L1.02 11.13Q1.12 11.00 1.18 10.93L1.18 10.93L1.18 10.93Q1.23 10.86 1.29 10.82L1.29 10.82L1.29 10.82Q1.34 10.78 1.43 10.74L1.43 10.74L1.43 10.74Q1.51 10.71 1.67 10.65L1.67 10.65L1.67 10.65Q1.23 10.35 0.92 9.93L0.92 9.93L0.92 9.93Q0.70 9.63 0.53 9.29L0.53 9.29L0.53 9.29Q0.36 8.95 0.25 8.57L0.25 8.57L0.25 8.57Q0.14 8.19 0.08 7.76L0.08 7.76L0.08 7.76Q0.03 7.34 0.03 6.87L0.03 6.87L0.03 6.87Q0.03 5.12 0.43 3.39L0.43 3.39L0.43 3.39Q0.55 2.94 0.67 2.53L0.67 2.53L0.67 2.53Q0.80 2.11 0.95 1.75L0.95 1.75L0.95 1.75Q1.19 1.19 1.48 0.64L1.48 0.64L1.48 0.64Q1.78 0.10 2.16-0.43L2.16-0.43L2.16-0.43Q2.20-0.49 2.27-0.62L2.27-0.62L2.27-0.62Q2.35-0.74 2.45-0.85L2.45-0.85L2.45-0.85Q2.55-0.97 2.68-1.03L2.68-1.03L2.68-1.03Q2.81-1.09 2.97-1.04L2.97-1.04L2.97-1.04Q3.21-0.95 3.42-0.76L3.42-0.76L3.42-0.76Q3.63-0.57 3.65-0.43L3.65-0.43L3.65-0.43Q3.67-0.32 3.65-0.23L3.65-0.23L3.65-0.23Q3.63-0.14 3.55-0.02L3.55-0.02L3.55-0.02Q3.47 0.10 3.34 0.24L3.34 0.24L3.34 0.24Q3.21 0.39 3.00 0.62L3.00 0.62L2.91 0.71L2.91 0.71Q2.66 1.05 2.43 1.56L2.43 1.56L2.43 1.56Q2.20 2.07 1.96 2.76L1.96 2.76L1.96 2.76Q1.60 3.89 1.41 4.92L1.41 4.92L1.41 4.92Q1.23 5.95 1.23 6.86L1.23 6.86L1.23 6.86Q1.23 8.61 1.74 9.45L1.74 9.45L1.74 9.45Q2.21 10.26 3.16 10.26L3.16 10.26L3.16 10.26Q4.52 10.26 5.19 8.71L5.19 8.71L5.19 8.71Q5.92 7.04 5.92 3.78L5.92 3.78L5.92 3.78Q5.92 2.02 5.35 1.02L5.35 1.02L5.35 1.02Q5.24 0.83 5.08 0.69L5.08 0.69L5.08 0.69Q4.93 0.55 4.70 0.50L4.70 0.50L4.70 0.50Q4.55 0.48 4.30 0.69L4.30 0.69L4.30 0.69Q4.06 0.91 3.79 1.39L3.79 1.39L3.79 1.39Q3.22 2.38 3.22 4.14L3.22 4.14L3.22 4.14Q3.22 7.08 3.79 8.69L3.79 8.69L3.79 8.69Q3.82 8.90 3.75 8.99L3.75 8.99L3.75 8.99Q3.68 9.07 3.58 9.06L3.58 9.06L3.58 9.06Q3.47 9.06 3.36 8.98L3.36 8.98L3.36 8.98Q3.25 8.90 3.19 8.78L3.19 8.78L3.19 8.78Q2.87 7.98 2.70 7.03L2.70 7.03L2.70 7.03Q2.59 6.36 2.50 5.71L2.50 5.71L2.50 5.71Q2.41 5.05 2.41 4.21L2.41 4.21L2.41 4.21Q2.41 3.67 2.44 3.19L2.44 3.19L2.44 3.19Q2.46 2.72 2.56 2.30L2.56 2.30L2.56 2.30Q2.67 1.88 2.78 1.51L2.78 1.51L2.78 1.51Q2.88 1.15 3.08 0.85L3.08 0.85L3.08 0.85Q3.28 0.59 3.46 0.34L3.46 0.34L3.46 0.34Q3.65 0.08 3.89-0.10L3.89-0.10L3.89-0.10Q4.17-0.32 4.50-0.34L4.50-0.34L4.50-0.34Q4.83-0.35 5.13-0.24L5.13-0.24L5.13-0.24Q5.43-0.13 5.68 0.08L5.68 0.08L5.68 0.08Q5.94 0.28 6.06 0.49L6.06 0.49L6.06 0.49Q6.26 0.80 6.41 1.15L6.41 1.15L6.41 1.15Q6.57 1.51 6.68 1.93L6.68 1.93L6.68 1.93Q6.87 2.80 6.87 3.85L6.87 3.85L6.87 3.85Q6.87 4.69 6.82 5.43L6.82 5.43L6.82 5.43Q6.76 6.17 6.65 6.85L6.65 6.85L6.65 6.85Q6.43 8.16 5.95 9.14L5.95 9.14L5.95 9.14Q5.40 10.28 4.62 10.78L4.62 10.78L4.62 10.78Q4.94 10.91 5.25 11.07L5.25 11.07L5.25 11.07Q5.56 11.24 5.84 11.48L5.84 11.48L5.84 11.48Q5.99 11.61 6.08 11.68L6.08 11.68L6.08 11.68Q6.16 11.75 6.22 11.80L6.22 11.80L6.22 11.80Q6.29 11.86 6.35 11.92L6.35 11.92L6.35 11.92Q6.41 11.98 6.50 12.08L6.50 12.08L6.50 12.08Q6.71 12.32 6.75 12.57L6.75 12.57L6.75 12.57Q6.80 12.82 6.76 13.04L6.76 13.04L6.76 13.04Q6.72 13.26 6.63 13.43L6.63 13.43L6.63 13.43Q6.54 13.59 6.47 13.65ZM11.59 5.53L11.59 5.53L11.59 5.53Q11.70 5.53 11.81 5.61L11.81 5.61L11.81 5.61Q11.91 5.70 11.91 5.91L11.91 5.91L11.91 5.91Q11.91 6.41 11.40 8.06L11.40 8.06L11.40 8.06Q11.03 9.16 10.69 9.68L10.69 9.68L10.69 9.68Q10.35 10.21 9.95 10.21L9.95 10.21L9.95 10.21Q9.59 10.21 9.37 9.87L9.37 9.87L9.37 9.87Q9.31 9.79 9.24 9.64L9.24 9.64L9.24 9.64Q9.17 9.49 9.10 9.30L9.10 9.30L9.10 9.30Q8.96 9.63 8.91 9.76L8.91 9.76L8.91 9.76Q8.86 9.88 8.83 9.93L8.83 9.93L8.83 9.94L8.83 9.94Q8.47 10.51 7.95 10.51L7.95 10.51L7.95 10.51Q7.80 10.51 7.60 10.42L7.60 10.42L7.60 10.42Q7.39 10.33 7.21 10.04L7.21 10.04L7.21 10.04Q6.96 9.60 6.96 9.04L6.96 9.04L6.96 9.04Q6.96 8.57 6.98 8.03L6.98 8.03L6.98 8.03Q7 7.49 7.03 6.86L7.03 6.86L7.03 6.86Q7.06 6.37 7.08 6.09L7.08 6.09L7.08 6.09Q7.11 5.81 7.13 5.67L7.13 5.67L7.13 5.67Q7.15 5.53 7.17 5.48L7.17 5.48L7.17 5.48Q7.18 5.43 7.20 5.40L7.20 5.40L7.20 5.40Q7.24 5.33 7.34 5.26L7.34 5.26L7.34 5.26Q7.43 5.18 7.63 5.18L7.63 5.18L7.63 5.18Q7.71 5.18 7.83 5.22L7.83 5.22L7.83 5.22Q7.94 5.26 8.05 5.39L8.05 5.39L8.05 5.39Q8.23 5.57 8.23 5.78L8.23 5.78L8.23 5.78Q8.23 5.92 8.16 6.17L8.16 6.17L8.16 6.17Q8.12 6.33 8.10 6.41L8.10 6.41L8.10 6.41Q8.08 6.48 8.08 6.51L8.08 6.51L8.08 6.51Q7.87 7.67 7.87 9.27L7.87 9.27L7.87 9.27Q7.87 9.55 7.90 9.63L7.90 9.63L7.90 9.63Q7.94 9.72 7.95 9.73L7.95 9.73L7.95 9.73Q8.02 9.73 8.07 9.66L8.07 9.66L8.07 9.66Q8.12 9.59 8.16 9.52L8.16 9.52L8.16 9.52Q8.23 9.37 8.30 9.21L8.30 9.21L8.30 9.21Q8.37 9.04 8.44 8.89L8.44 8.89L8.44 8.88L8.44 8.88Q8.76 8.19 8.92 7L8.92 7L8.92 7Q8.93 6.93 8.95 6.75L8.95 6.75L8.95 6.75Q8.97 6.58 9.03 6.30L9.03 6.30L9.03 6.29L9.03 6.29Q9.10 5.89 9.10 5.73L9.10 5.73L9.10 5.33L9.10 5.33Q9.06 5.04 9.16 4.83L9.16 4.83L9.16 4.83Q9.27 4.59 9.53 4.59L9.53 4.59L9.62 4.59L9.62 4.59Q10.02 4.61 10.12 4.77L10.12 4.77L10.12 4.77Q10.22 4.93 10.22 5.04L10.22 5.04L10.22 5.04Q10.22 5.18 10.11 5.36L10.11 5.36L10.11 5.36Q10.07 5.45 10.04 5.60L10.04 5.60L10.04 5.60Q10.04 5.61 10.03 5.66L10.03 5.66L10.03 5.66Q10.02 5.70 10.01 5.82L10.01 5.82L10.01 5.82Q10.00 5.94 9.97 6.16L9.97 6.16L9.97 6.16Q9.94 6.38 9.88 6.75L9.88 6.75L9.88 6.75Q9.83 7.15 9.80 7.50L9.80 7.50L9.80 7.50Q9.77 7.84 9.77 8.11L9.77 8.11L9.77 8.11Q9.77 8.44 9.79 8.70L9.79 8.70L9.79 8.70Q9.81 8.96 9.87 9.11L9.87 9.11L9.87 9.11Q9.94 9.32 10.00 9.34L10.00 9.34L10.00 9.34Q10.01 9.34 10.05 9.30L10.05 9.30L10.05 9.30Q10.09 9.25 10.18 9.11L10.18 9.11L10.18 9.11Q10.26 8.97 10.37 8.72L10.37 8.72L10.37 8.72Q10.49 8.47 10.63 8.02L10.63 8.02L10.63 8.02Q10.78 7.46 10.93 6.94L10.93 6.94L10.93 6.94Q11.07 6.41 11.23 5.89L11.23 5.89L11.23 5.89Q11.35 5.53 11.59 5.53ZM12.94 9.66L12.94 9.66L12.94 9.66Q12.57 10.44 12.04 10.44L12.04 10.44L12.04 10.44Q11.86 10.44 11.64 10.35L11.64 10.35L11.64 10.35Q11.42 10.25 11.23 9.93L11.23 9.93L11.23 9.93Q11.10 9.69 11.03 9.40L11.03 9.40L11.03 9.40Q10.96 9.11 10.96 8.75L10.96 8.75L10.96 8.75Q10.96 8.44 11.09 7.07L11.09 7.07L11.09 7.07Q11.16 6.40 11.19 5.99L11.19 5.99L11.19 5.99Q11.21 5.57 11.21 5.43L11.21 5.43L11.21 5.43Q11.21 5.29 11.21 5.22L11.21 5.22L11.21 5.22Q11.21 5.15 11.26 5.12L11.26 5.12L11.26 5.12Q11.30 5.10 11.40 5.11L11.40 5.11L11.40 5.11Q11.51 5.12 11.72 5.17L11.72 5.17L11.72 5.17Q12.11 5.24 12.21 5.35L12.21 5.35L12.21 5.35Q12.32 5.46 12.32 5.54L12.32 5.54L12.32 5.54Q12.32 5.59 12.30 5.67L12.30 5.67L12.30 5.67Q12.28 5.75 12.25 5.85L12.25 5.85L12.25 5.85Q12.22 5.95 12.20 6.03L12.20 6.03L12.20 6.03Q12.18 6.12 12.18 6.15L12.18 6.15L12.18 6.15Q12.15 6.26 12.10 6.55L12.10 6.55L12.10 6.55Q12.05 6.85 11.98 7.17L11.98 7.17L11.98 7.17Q11.90 7.62 11.86 7.99L11.86 7.99L11.86 7.99Q11.83 8.36 11.83 8.78L11.83 8.78L11.83 8.78Q11.83 8.85 11.84 8.97L11.84 8.97L11.84 8.97Q11.84 9.10 11.86 9.23L11.86 9.23L11.86 9.23Q11.89 9.37 11.93 9.46L11.93 9.46L11.93 9.46Q11.98 9.56 12.07 9.58L12.07 9.58L12.07 9.58Q12.10 9.56 12.18 9.44L12.18 9.44L12.18 9.44Q12.26 9.32 12.40 8.96L12.40 8.96L12.40 8.96Q12.43 8.88 12.60 8.50L12.60 8.50L12.60 8.50Q12.77 8.12 12.98 7.45L12.98 7.45L12.98 7.45Q13.05 7.22 13.16 6.90L13.16 6.90L13.16 6.90Q13.27 6.58 13.40 6.13L13.40 6.13L13.40 6.13Q13.41 6.08 13.44 5.99L13.44 5.99L13.44 5.99Q13.47 5.89 13.51 5.81L13.51 5.81L13.51 5.81Q13.55 5.73 13.62 5.67L13.62 5.67L13.62 5.67Q13.69 5.61 13.80 5.61L13.80 5.61L13.80 5.61Q13.85 5.61 13.91 5.68L13.91 5.68L13.91 5.68Q13.97 5.74 13.97 6.03L13.97 6.03L13.97 6.03Q13.97 6.10 13.96 6.22L13.96 6.22L13.96 6.22Q13.94 6.34 13.89 6.59L13.89 6.59L13.89 6.59Q13.83 6.83 13.73 7.21L13.73 7.21L13.73 7.21Q13.62 7.59 13.44 8.18L13.44 8.18L13.44 8.18Q13.24 8.81 13.13 9.16L13.13 9.16L13.13 9.16Q13.01 9.52 12.94 9.66ZM12.07 4.55L12.07 4.55L12.07 4.55Q11.70 4.55 11.49 4.27L11.49 4.27L11.49 4.27Q11.27 4.00 11.27 3.72L11.27 3.72L11.27 3.72Q11.27 3.49 11.49 3.26L11.49 3.26L11.49 3.26Q11.75 3.04 11.94 3.04L11.94 3.04L11.94 3.04Q12.28 3.04 12.46 3.23L12.46 3.23L12.46 3.23Q12.64 3.43 12.64 3.79L12.64 3.79L12.64 3.79Q12.64 4.05 12.58 4.20L12.58 4.20L12.58 4.20Q12.52 4.35 12.42 4.43L12.42 4.43L12.42 4.43Q12.32 4.51 12.22 4.53L12.22 4.53L12.22 4.53Q12.12 4.55 12.07 4.55ZM16.56 5.59L16.56 5.59L16.56 5.59Q16.63 5.59 16.65 5.66L16.65 5.66L16.65 5.66Q16.66 5.73 16.66 6.05L16.66 6.05L16.66 6.05Q16.66 6.13 16.61 6.38L16.61 6.38L16.61 6.38Q16.56 6.64 16.38 7.32L16.38 7.32L16.38 7.32Q16.14 8.18 15.95 8.76L15.95 8.76L15.95 8.76Q15.75 9.35 15.55 9.69L15.55 9.69L15.55 9.69Q15.13 10.50 14.55 10.50L14.55 10.50L14.55 10.50Q13.83 10.50 13.45 9.83L13.45 9.83L13.45 9.83Q13.10 9.21 13.10 8.13L13.10 8.13L13.10 8.13Q13.10 7 13.50 5.84L13.50 5.84L13.50 5.84Q13.93 4.55 14.52 4.55L14.52 4.55L14.52 4.55Q14.67 4.55 14.78 4.59L14.78 4.59L14.78 4.59Q14.90 4.63 15.05 4.83L15.05 4.83L15.05 4.83Q15.20 5.03 15.24 5.21L15.24 5.21L15.24 5.21Q15.27 5.40 15.23 5.54L15.23 5.54L15.23 5.54Q15.15 5.85 15.00 5.98L15.00 5.98L15.00 5.98Q14.85 6.10 14.78 6.10L14.78 6.10L14.78 6.10Q14.59 6.10 14.49 5.99L14.49 5.99L14.49 5.99Q14.03 6.73 14.03 8.68L14.03 8.68L14.03 8.68Q14.03 9.13 14.17 9.41L14.17 9.41L14.17 9.41Q14.21 9.49 14.27 9.56L14.27 9.56L14.27 9.56Q14.34 9.63 14.41 9.63L14.41 9.63L14.41 9.63Q14.49 9.63 14.66 9.54L14.66 9.54L14.66 9.54Q14.84 9.45 15.07 9.13L15.07 9.13L15.07 9.13Q15.30 8.82 15.55 8.22L15.55 8.22L15.55 8.22Q15.81 7.62 16.04 6.58L16.04 6.58L16.04 6.58Q16.11 6.26 16.16 6.14L16.16 6.14L16.16 6.14Q16.20 6.02 16.20 5.99L16.20 5.99L16.20 5.98L16.21 5.95L16.21 5.95Q16.28 5.73 16.38 5.66L16.38 5.66L16.38 5.66Q16.48 5.59 16.56 5.59ZM20.57 5.57L20.57 5.57L20.57 5.57Q20.68 5.57 20.78 5.66L20.78 5.66L20.78 5.66Q20.89 5.74 20.89 5.95L20.89 5.95L20.89 5.95Q20.89 6.36 20.75 6.79L20.75 6.79L20.75 6.79Q20.59 7.32 20.43 7.85L20.43 7.85L20.43 7.85Q20.27 8.37 20.10 8.90L20.10 8.90L20.10 8.92L20.10 8.92Q19.54 10.46 18.86 10.46L18.86 10.46L18.86 10.46Q18.59 10.46 18.27 10.30L18.27 10.30L18.27 10.30Q17.95 10.15 17.72 9.63L17.72 9.63L17.72 9.63Q17.72 9.62 17.71 9.59L17.71 9.59L17.71 9.59Q17.70 9.56 17.67 9.46L17.67 9.46L17.67 9.46Q17.64 9.37 17.60 9.18L17.60 9.18L17.60 9.18Q17.56 8.99 17.47 8.67L17.47 8.67L17.47 8.67Q17.32 8.75 17.01 8.96L17.01 8.96L17.01 8.96Q17.00 9.11 16.98 9.31L16.98 9.31L16.98 9.31Q16.97 9.51 16.94 9.73L16.94 9.73L16.94 9.73Q17.04 10.04 17.04 10.25L17.04 10.25L17.04 10.25Q17.04 10.44 16.92 10.56L16.92 10.56L16.92 10.56Q16.80 10.67 16.60 10.67L16.60 10.67L16.60 10.67Q16.37 10.67 16.25 10.42L16.25 10.42L16.25 10.42Q16.14 10.16 16.07 9.86L16.07 9.86L16.07 9.86Q16.04 9.69 16.03 9.48L16.03 9.48L16.03 9.48Q16.02 9.27 16.02 8.99L16.02 8.99L16.02 8.99Q16.02 8.48 16.09 7.50L16.09 7.50L16.09 7.50Q16.17 6.51 16.32 5.04L16.32 5.04L16.32 5.04Q16.63 2.09 16.66 1.01L16.66 1.01L16.66 1.01Q16.59 0.71 16.66 0.43L16.66 0.43L16.66 0.42L16.66 0.42Q16.73 0.11 16.88 0.04L16.88 0.04L16.88 0.04Q17.04-0.04 17.15-0.04L17.15-0.04L17.15-0.04Q17.44-0.04 17.64 0.21L17.64 0.21L17.64 0.21Q17.82 0.41 17.82 0.71L17.82 0.71L17.82 0.71Q17.82 0.91 17.74 1.34L17.74 1.34L17.74 1.34Q17.65 1.78 17.50 2.48L17.50 2.48L17.50 2.48Q17.50 2.51 17.49 2.59L17.49 2.59L17.49 2.59Q17.47 2.67 17.44 2.86L17.44 2.86L17.44 2.86Q17.42 3.04 17.37 3.34L17.37 3.34L17.37 3.34Q17.33 3.64 17.26 4.10L17.26 4.10L17.26 4.10Q17.19 4.68 17.13 5.19L17.13 5.19L17.13 5.19Q17.07 5.71 17.02 6.20L17.02 6.20L17.02 6.20Q17.09 6.03 17.19 5.83L17.19 5.83L17.19 5.83Q17.29 5.63 17.40 5.39L17.40 5.39L17.40 5.39Q17.88 4.41 18.41 4.41L18.41 4.41L18.41 4.41Q18.77 4.41 19.08 4.69L19.08 4.69L19.08 4.69Q19.36 4.97 19.36 5.38L19.36 5.38L19.36 5.38Q19.36 6.03 18.97 6.78L18.97 6.78L18.96 6.79L18.31 7.81L18.31 7.81Q18.30 7.88 18.29 7.99L18.29 7.99L18.29 7.99Q18.28 8.09 18.28 8.20L18.28 8.20L18.28 8.20Q18.28 8.75 18.44 9.18L18.44 9.18L18.44 9.18Q18.58 9.59 18.80 9.59L18.80 9.59L18.80 9.59Q18.82 9.59 18.86 9.58L18.86 9.58L18.86 9.58Q18.90 9.56 18.97 9.49L18.97 9.49L18.97 9.49Q19.04 9.42 19.13 9.28L19.13 9.28L19.13 9.28Q19.22 9.13 19.33 8.86L19.33 8.86L19.33 8.86Q19.46 8.54 19.64 7.95L19.64 7.95L19.64 7.95Q19.82 7.36 20.06 6.52L20.06 6.52L20.06 6.52Q20.09 6.41 20.10 6.30L20.10 6.30L20.10 6.30Q20.12 6.19 20.15 6.08L20.15 6.08L20.16 6.05L20.16 6.05Q20.17 6.01 20.20 5.93L20.20 5.93L20.20 5.93Q20.22 5.85 20.26 5.77L20.26 5.77L20.26 5.77Q20.31 5.68 20.38 5.63L20.38 5.63L20.38 5.63Q20.45 5.57 20.57 5.57ZM17.86 7.08L17.86 7.08L17.86 7.08Q18.49 6.08 18.49 5.29L18.49 5.29L18.49 5.29Q18.49 5.24 18.49 5.21L18.49 5.21L18.49 5.21Q18.48 5.19 18.48 5.18L18.48 5.18L18.47 5.18L18.47 5.18Q18.44 5.18 18.36 5.25L18.36 5.25L18.36 5.25Q18.28 5.32 18.16 5.54L18.16 5.54L18.16 5.54Q18.10 5.66 17.99 5.90L17.99 5.90L17.99 5.90Q17.88 6.15 17.72 6.55L17.72 6.55L17.72 6.55Q17.53 7.06 17.41 7.38L17.41 7.38L17.41 7.38Q17.29 7.71 17.23 7.91L17.23 7.91L17.23 7.91Q17.35 7.81 17.50 7.62L17.50 7.62L17.50 7.62Q17.65 7.43 17.86 7.08ZM29.20 10.30L29.20 10.30L29.20 10.30Q29.32 10.37 29.34 10.49L29.34 10.49L29.34 10.49Q29.36 10.61 29.30 10.71L29.30 10.71L29.30 10.71Q29.26 10.79 29.11 10.83L29.11 10.83L29.11 10.83Q28.97 10.86 28.78 10.87L28.78 10.87L28.78 10.87Q28.60 10.88 28.44 10.86L28.44 10.86L28.44 10.86Q28.28 10.84 28.21 10.79L28.21 10.79L28.21 10.79Q27.93 10.64 27.66 10.39L27.66 10.39L27.66 10.39Q27.38 10.15 27.13 9.79L27.13 9.79L27.13 9.79Q26.81 9.32 26.62 8.95L26.62 8.95L26.62 8.95Q26.43 8.57 26.31 8.17L26.31 8.17L26.31 8.17Q26.18 7.77 26.07 7.31L26.07 7.31L26.07 7.31Q25.97 6.86 25.80 6.27L25.80 6.27L25.80 6.27Q25.61 6.19 25.44 6.03L25.44 6.03L25.44 6.03Q25.28 5.87 25.31 5.59L25.31 5.59L25.31 5.59Q25.33 5.39 25.46 5.20L25.46 5.20L25.46 5.20Q25.59 5.01 25.84 4.93L25.84 4.93L25.84 4.93Q25.90 4.90 26.00 4.89L26.00 4.89L26.00 4.89Q26.10 4.89 26.20 4.89L26.20 4.89L26.20 4.89Q26.31 4.89 26.40 4.90L26.40 4.90L26.40 4.90Q26.50 4.91 26.56 4.94L26.56 4.94L26.56 4.94Q26.77 5.04 26.85 5.18L26.85 5.18L26.85 5.18Q26.89 5.28 27.01 5.28L27.01 5.28L27.01 5.28Q27.10 5.31 27.27 5.20L27.27 5.20L27.27 5.20Q27.44 5.10 27.54 5.01L27.54 5.01L27.54 5.01Q27.87 4.70 28.14 4.17L28.14 4.17L28.14 4.17Q28.41 3.63 28.62 2.87L28.62 2.87L28.62 2.87Q28.66 2.72 28.71 2.49L28.71 2.49L28.71 2.49Q28.76 2.27 28.78 2.04L28.78 2.04L28.78 2.04Q28.81 1.83 28.80 1.67L28.80 1.67L28.80 1.67Q28.78 1.51 28.76 1.36L28.76 1.36L28.76 1.36Q28.63 0.59 28.17 0.34L28.17 0.34L28.17 0.34Q27.31-0.13 26.39 0.43L26.39 0.43L26.39 0.43Q26.03 0.66 25.63 1.05L25.63 1.05L25.63 1.05Q25.62 1.06 25.62 1.08L25.62 1.08L25.62 1.08Q25.45 1.74 25.30 3.79L25.30 3.79L25.30 3.79Q25.23 4.58 25.20 5.13L25.20 5.13L25.20 5.13Q25.17 5.68 25.16 6.03L25.16 6.03L25.16 6.03Q25.16 6.19 25.14 6.64L25.14 6.64L25.14 6.64Q25.13 7.10 25.12 7.60L25.12 7.60L25.12 7.60Q25.10 8.11 25.08 8.54L25.08 8.54L25.08 8.54Q25.06 8.97 25.06 9.11L25.06 9.11L25.06 9.11Q25.06 9.25 25.07 9.44L25.07 9.44L25.07 9.44Q25.07 9.63 25.09 9.81L25.09 9.81L25.09 9.81Q25.12 10.00 25.14 10.15L25.14 10.15L25.14 10.15Q25.17 10.30 25.20 10.37L25.20 10.37L25.20 10.37Q25.26 10.53 25.31 10.63L25.31 10.63L25.31 10.63Q25.37 10.74 25.40 10.88L25.40 10.88L25.40 10.88Q25.42 10.93 25.36 11.02L25.36 11.02L25.36 11.02Q25.30 11.10 25.23 11.12L25.23 11.12L25.23 11.12Q25.16 11.13 25.11 11.14L25.11 11.14L25.11 11.14Q25.06 11.14 25.02 11.14L25.02 11.14L25.02 11.14Q24.70 11.14 24.52 11.03L24.52 11.03L24.52 11.03Q24.35 10.91 24.28 10.77L24.28 10.77L24.28 10.77Q24.15 10.57 24.09 9.98L24.09 9.98L24.09 9.98Q24.01 9.38 24.01 7.34L24.01 7.34L24.01 7.34Q24.01 7.24 24.02 6.93L24.02 6.93L24.02 6.93Q24.02 6.62 24.03 6.21L24.03 6.21L24.03 6.21Q24.04 5.80 24.05 5.32L24.05 5.32L24.05 5.32Q24.07 4.84 24.08 4.42L24.08 4.42L24.08 4.42Q24.09 3.99 24.11 3.66L24.11 3.66L24.11 3.66Q24.12 3.33 24.15 3.19L24.15 3.19L24.25 1.48L24.25 1.48Q24.25 1.22 24.28 0.92L24.28 0.92L24.28 0.92Q24.30 0.63 24.28 0.35L24.28 0.35L24.33-0.29L24.33-0.29Q24.33-0.36 24.39-0.42L24.39-0.42L24.39-0.42Q24.64-0.64 25.00-0.64L25.00-0.64L25.07-0.64L25.07-0.64Q25.56-0.62 25.72-0.22L25.72-0.22L25.72-0.22Q25.79-0.27 25.86-0.31L25.86-0.31L25.86-0.31Q25.93-0.35 26.00-0.38L26.00-0.38L26.00-0.38Q26.67-0.69 27.40-0.67L27.40-0.67L27.40-0.67Q28.10-0.66 28.88-0.29L28.88-0.29L28.90-0.29L28.90-0.29Q29.44 0.01 29.69 0.55L29.69 0.55L29.69 0.55Q29.95 1.08 29.97 1.71L29.97 1.71L29.97 1.71Q30.00 2.16 29.91 2.78L29.91 2.78L29.91 2.78Q29.82 3.40 29.44 4.17L29.44 4.17L29.44 4.17Q29.40 4.27 29.35 4.35L29.35 4.35L29.35 4.35Q29.30 4.44 29.25 4.54L29.25 4.54L29.25 4.54Q29.08 4.84 28.83 5.12L28.83 5.12L28.83 5.12Q28.59 5.40 28.29 5.63L28.29 5.63L28.29 5.63Q27.99 5.87 27.66 6.04L27.66 6.04L27.66 6.04Q27.34 6.22 27.03 6.30L27.03 6.30L27.03 6.30Q27.03 6.41 27.04 6.51L27.04 6.51L27.04 6.51Q27.05 6.61 27.06 6.72L27.06 6.72L27.06 6.72Q27.12 7.46 27.25 8.03L27.25 8.03L27.25 8.03Q27.38 8.60 27.75 9.17L27.75 9.17L27.75 9.17Q28.20 9.93 28.63 10.15L28.63 10.15L28.63 10.15Q28.64 10.16 28.69 10.18L28.69 10.18L28.69 10.18Q28.74 10.19 28.87 10.21L28.87 10.21L28.87 10.21Q29.02 10.23 29.10 10.26L29.10 10.26L29.10 10.26Q29.18 10.28 29.20 10.30ZM32.86 5.49L32.86 5.49L32.86 5.49Q33.04 5.49 33.03 5.59L33.03 5.59L33.03 5.59Q33.01 5.70 33.01 5.87L33.01 5.87L33.01 5.87Q33.01 5.89 33.00 5.96L33.00 5.96L33.00 5.96Q33.00 6.02 32.97 6.13L32.97 6.13L32.97 6.13Q32.94 6.24 32.90 6.44L32.90 6.44L32.90 6.44Q32.86 6.64 32.77 6.93L32.77 6.93L32.77 6.93Q32.51 8.01 32.20 8.83L32.20 8.83L32.20 8.83Q32.05 9.24 31.90 9.53L31.90 9.53L31.90 9.53Q31.75 9.81 31.61 10.01L31.61 10.01L31.61 10.01Q31.23 10.54 30.66 10.54L30.66 10.54L30.66 10.54Q30.02 10.54 29.55 9.87L29.55 9.87L29.55 9.87Q29.13 9.24 29.13 8.34L29.13 8.34L29.13 8.34Q29.13 7.62 29.24 6.87L29.24 6.87L29.24 6.87Q29.34 6.13 29.51 5.54L29.51 5.54L29.51 5.54Q29.57 5.33 29.64 5.11L29.64 5.11L29.64 5.11Q29.72 4.89 29.83 4.70L29.83 4.70L29.83 4.70Q29.95 4.51 30.09 4.39L30.09 4.39L30.09 4.39Q30.23 4.27 30.42 4.27L30.42 4.27L30.42 4.27Q30.81 4.27 31.15 4.56L31.15 4.56L31.15 4.56Q31.30 4.72 31.40 4.94L31.40 4.94L31.40 4.94Q31.50 5.17 31.50 5.33L31.50 5.33L31.50 5.33Q31.50 5.61 31.44 5.95L31.44 5.95L31.44 5.95Q31.39 6.29 31.30 6.62L31.30 6.62L31.30 6.62Q31.22 6.94 31.11 7.22L31.11 7.22L31.11 7.22Q31.01 7.49 30.90 7.66L30.90 7.66L30.90 7.66Q30.83 7.78 30.70 7.91L30.70 7.91L30.70 7.91Q30.58 8.04 30.44 8.11L30.44 8.11L30.44 8.11Q30.31 8.19 30.19 8.20L30.19 8.20L30.19 8.20Q30.07 8.20 29.99 8.09L29.99 8.09L29.99 8.09Q29.96 8.20 29.97 8.39L29.97 8.39L29.97 8.39Q29.99 8.57 30.02 8.74L30.02 8.74L30.02 8.74Q30.04 8.92 30.09 9.07L30.09 9.07L30.09 9.07Q30.13 9.23 30.16 9.30L30.16 9.30L30.16 9.30Q30.27 9.53 30.45 9.65L30.45 9.65L30.45 9.65Q30.63 9.77 30.70 9.77L30.70 9.77L30.70 9.77Q30.84 9.77 30.97 9.56L30.97 9.56L30.97 9.56Q31.11 9.35 31.32 9.03L31.32 9.03L31.32 9.03Q31.56 8.65 31.85 7.97L31.85 7.97L31.85 7.97Q32.14 7.28 32.38 6.50L32.38 6.50L32.38 6.50Q32.42 6.34 32.46 6.20L32.46 6.20L32.46 6.20Q32.49 6.05 32.54 5.89L32.54 5.89L32.54 5.89Q32.61 5.49 32.86 5.49ZM30.66 5.19L30.66 5.19L30.66 5.19Q30.55 5.50 30.46 5.75L30.46 5.75L30.46 5.75Q30.37 5.99 30.28 6.22L30.28 6.22L30.28 6.22Q30.20 6.45 30.14 6.69L30.14 6.69L30.14 6.69Q30.09 6.93 30.07 7.22L30.07 7.22L30.07 7.22Q30.25 7.21 30.39 6.97L30.39 6.97L30.39 6.97Q30.52 6.73 30.56 6.54L30.56 6.54L30.56 6.54Q30.62 6.26 30.68 5.97L30.68 5.97L30.68 5.97Q30.74 5.68 30.74 5.38L30.74 5.38L30.74 5.38Q30.74 5.31 30.72 5.20L30.72 5.20L30.72 5.20Q30.70 5.10 30.66 5.19ZM35.59 5.59L35.59 5.59L35.59 5.59Q35.66 5.59 35.67 5.66L35.67 5.66L35.67 5.66Q35.69 5.73 35.69 6.05L35.69 6.05L35.69 6.05Q35.69 6.13 35.64 6.38L35.64 6.38L35.64 6.38Q35.59 6.64 35.41 7.32L35.41 7.32L35.41 7.32Q35.17 8.18 34.97 8.76L34.97 8.76L34.97 8.76Q34.78 9.35 34.58 9.69L34.58 9.69L34.58 9.69Q34.16 10.50 33.57 10.50L33.57 10.50L33.57 10.50Q32.86 10.50 32.48 9.83L32.48 9.83L32.48 9.83Q32.13 9.21 32.13 8.13L32.13 8.13L32.13 8.13Q32.13 7 32.52 5.84L32.52 5.84L32.52 5.84Q32.96 4.55 33.54 4.55L33.54 4.55L33.54 4.55Q33.70 4.55 33.81 4.59L33.81 4.59L33.81 4.59Q33.92 4.63 34.08 4.83L34.08 4.83L34.08 4.83Q34.23 5.03 34.26 5.21L34.26 5.21L34.26 5.21Q34.30 5.40 34.26 5.54L34.26 5.54L34.26 5.54Q34.17 5.85 34.03 5.98L34.03 5.98L34.03 5.98Q33.88 6.10 33.81 6.10L33.81 6.10L33.81 6.10Q33.61 6.10 33.52 5.99L33.52 5.99L33.52 5.99Q33.05 6.73 33.05 8.68L33.05 8.68L33.05 8.68Q33.05 9.13 33.19 9.41L33.19 9.41L33.19 9.41Q33.24 9.49 33.30 9.56L33.30 9.56L33.30 9.56Q33.36 9.63 33.43 9.63L33.43 9.63L33.43 9.63Q33.52 9.63 33.69 9.54L33.69 9.54L33.69 9.54Q33.87 9.45 34.10 9.13L34.10 9.13L34.10 9.13Q34.33 8.82 34.58 8.22L34.58 8.22L34.58 8.22Q34.83 7.62 35.07 6.58L35.07 6.58L35.07 6.58Q35.14 6.26 35.18 6.14L35.18 6.14L35.18 6.14Q35.22 6.02 35.22 5.99L35.22 5.99L35.22 5.98L35.24 5.95L35.24 5.95Q35.31 5.73 35.41 5.66L35.41 5.66L35.41 5.66Q35.50 5.59 35.59 5.59ZM36.96 9.66L36.96 9.66L36.96 9.66Q36.60 10.44 36.06 10.44L36.06 10.44L36.06 10.44Q35.88 10.44 35.66 10.35L35.66 10.35L35.66 10.35Q35.45 10.25 35.25 9.93L35.25 9.93L35.25 9.93Q35.13 9.69 35.06 9.40L35.06 9.40L35.06 9.40Q34.99 9.11 34.99 8.75L34.99 8.75L34.99 8.75Q34.99 8.44 35.11 7.07L35.11 7.07L35.11 7.07Q35.18 6.40 35.21 5.99L35.21 5.99L35.21 5.99Q35.24 5.57 35.24 5.43L35.24 5.43L35.24 5.43Q35.24 5.29 35.24 5.22L35.24 5.22L35.24 5.22Q35.24 5.15 35.28 5.12L35.28 5.12L35.28 5.12Q35.32 5.10 35.43 5.11L35.43 5.11L35.43 5.11Q35.53 5.12 35.74 5.17L35.74 5.17L35.74 5.17Q36.13 5.24 36.24 5.35L36.24 5.35L36.24 5.35Q36.34 5.46 36.34 5.54L36.34 5.54L36.34 5.54Q36.34 5.59 36.32 5.67L36.32 5.67L36.32 5.67Q36.30 5.75 36.27 5.85L36.27 5.85L36.27 5.85Q36.25 5.95 36.22 6.03L36.22 6.03L36.22 6.03Q36.20 6.12 36.20 6.15L36.20 6.15L36.20 6.15Q36.18 6.26 36.13 6.55L36.13 6.55L36.13 6.55Q36.08 6.85 36.01 7.17L36.01 7.17L36.01 7.17Q35.92 7.62 35.89 7.99L35.89 7.99L35.89 7.99Q35.85 8.36 35.85 8.78L35.85 8.78L35.85 8.78Q35.85 8.85 35.86 8.97L35.86 8.97L35.86 8.97Q35.87 9.10 35.89 9.23L35.89 9.23L35.89 9.23Q35.91 9.37 35.96 9.46L35.96 9.46L35.96 9.46Q36.01 9.56 36.09 9.58L36.09 9.58L36.09 9.58Q36.12 9.56 36.20 9.44L36.20 9.44L36.20 9.44Q36.29 9.32 36.43 8.96L36.43 8.96L36.43 8.96Q36.46 8.88 36.62 8.50L36.62 8.50L36.62 8.50Q36.79 8.12 37.00 7.45L37.00 7.45L37.00 7.45Q37.07 7.22 37.18 6.90L37.18 6.90L37.18 6.90Q37.30 6.58 37.42 6.13L37.42 6.13L37.42 6.13Q37.44 6.08 37.46 5.99L37.46 5.99L37.46 5.99Q37.49 5.89 37.53 5.81L37.53 5.81L37.53 5.81Q37.58 5.73 37.65 5.67L37.65 5.67L37.65 5.67Q37.72 5.61 37.83 5.61L37.83 5.61L37.83 5.61Q37.87 5.61 37.93 5.68L37.93 5.68L37.93 5.68Q38.00 5.74 38.00 6.03L38.00 6.03L38.00 6.03Q38.00 6.10 37.98 6.22L37.98 6.22L37.98 6.22Q37.97 6.34 37.91 6.59L37.91 6.59L37.91 6.59Q37.86 6.83 37.75 7.21L37.75 7.21L37.75 7.21Q37.65 7.59 37.46 8.18L37.46 8.18L37.46 8.18Q37.27 8.81 37.15 9.16L37.15 9.16L37.15 9.16Q37.03 9.52 36.96 9.66ZM36.09 4.55L36.09 4.55L36.09 4.55Q35.73 4.55 35.52 4.27L35.52 4.27L35.52 4.27Q35.29 4.00 35.29 3.72L35.29 3.72L35.29 3.72Q35.29 3.49 35.52 3.26L35.52 3.26L35.52 3.26Q35.77 3.04 35.97 3.04L35.97 3.04L35.97 3.04Q36.30 3.04 36.48 3.23L36.48 3.23L36.48 3.23Q36.67 3.43 36.67 3.79L36.67 3.79L36.67 3.79Q36.67 4.05 36.60 4.20L36.60 4.20L36.60 4.20Q36.54 4.35 36.44 4.43L36.44 4.43L36.44 4.43Q36.34 4.51 36.25 4.53L36.25 4.53L36.25 4.53Q36.15 4.55 36.09 4.55ZM40.14 4.86L40.14 4.87L40.14 4.87Q40.46 5.25 40.46 6.16L40.46 6.16L40.46 6.16Q40.46 8.12 39.98 9.32L39.98 9.32L39.98 9.32Q39.47 10.63 38.61 10.63L38.61 10.63L38.61 10.63Q38.22 10.63 37.94 10.22L37.94 10.22L37.94 10.22Q37.93 10.19 37.92 10.19L37.92 10.19L37.92 10.19Q37.91 10.18 37.90 10.15L37.90 10.15L37.90 10.15Q37.69 11.49 37.69 13.17L37.69 13.17L37.69 13.17Q37.69 13.50 37.71 13.77L37.71 13.77L37.71 13.77Q37.73 14.04 37.76 14.25L37.76 14.25L37.76 14.25Q37.80 14.50 37.87 14.70L37.87 14.70L37.87 14.70Q37.93 14.80 37.93 14.83L37.93 14.83L37.93 14.83Q37.95 14.85 37.95 14.94L37.95 14.94L37.95 14.94Q37.95 15.01 37.91 15.08L37.91 15.08L37.91 15.08Q37.87 15.15 37.76 15.18L37.76 15.18L37.76 15.18Q37.72 15.19 37.55 15.19L37.55 15.19L37.55 15.19Q37.41 15.19 37.24 15.08L37.24 15.08L37.24 15.08Q37.07 14.97 36.96 14.60L36.96 14.60L36.96 14.60Q36.89 14.36 36.85 14.02L36.85 14.02L36.85 14.02Q36.82 13.68 36.82 13.20L36.82 13.20L36.82 13.20Q36.82 12.53 36.91 11.47L36.91 11.47L36.91 11.47Q37.00 10.42 37.17 8.97L37.17 8.97L37.17 8.97Q37.34 7.66 37.42 6.69L37.42 6.69L37.42 6.69Q37.51 5.73 37.49 5.11L37.49 5.11L37.49 5.11Q37.41 5.01 37.41 4.89L37.41 4.89L37.41 4.89Q37.41 4.73 37.51 4.61L37.51 4.61L37.51 4.61Q37.62 4.49 37.86 4.49L37.86 4.49L37.86 4.49Q37.91 4.49 38.00 4.51L38.00 4.51L38.00 4.51Q38.08 4.54 38.16 4.60L38.16 4.60L38.16 4.60Q38.23 4.66 38.29 4.78L38.29 4.78L38.29 4.78Q38.35 4.90 38.35 5.11L38.35 5.11L38.35 5.11Q38.35 5.18 38.35 5.26L38.35 5.26L38.35 5.26Q38.35 5.33 38.32 5.45L38.32 5.45L38.32 5.45Q38.30 5.52 38.30 5.54L38.30 5.54L38.30 5.54Q38.29 5.57 38.29 5.60L38.29 5.60L38.29 5.60Q38.36 5.46 38.41 5.33L38.41 5.33L38.41 5.33Q38.46 5.21 38.53 5.10L38.53 5.10L38.53 5.10Q38.72 4.77 38.85 4.63L38.85 4.63L38.85 4.63Q38.98 4.49 39.12 4.49L39.12 4.49L39.12 4.49Q39.80 4.49 40.14 4.86L40.14 4.86ZM39.61 7.11L39.61 6.19L39.61 6.19Q39.61 6.08 39.60 5.92L39.60 5.92L39.60 5.92Q39.59 5.75 39.56 5.60L39.56 5.60L39.56 5.60Q39.52 5.45 39.47 5.33L39.47 5.33L39.47 5.33Q39.41 5.22 39.31 5.22L39.31 5.22L39.31 5.22Q39.30 5.22 39.26 5.26L39.26 5.26L39.26 5.26Q39.21 5.31 39.14 5.46L39.14 5.46L39.14 5.47L39.14 5.47Q39.13 5.49 39.07 5.65L39.07 5.65L39.07 5.65Q39.02 5.81 38.82 6.31L38.82 6.31L38.82 6.31Q38.42 7.35 38.28 7.90L38.28 7.90L38.28 7.90Q38.14 8.44 38.12 8.67L38.12 8.67L38.12 8.67Q38.25 8.74 38.34 8.83L38.34 8.83L38.34 8.83Q38.43 8.92 38.43 9.04L38.43 9.04L38.43 9.04Q38.43 9.14 38.38 9.21L38.38 9.21L38.38 9.21Q38.33 9.27 38.30 9.30L38.30 9.30L38.30 9.30Q38.29 9.30 38.29 9.31L38.29 9.31L38.29 9.31Q38.29 9.39 38.32 9.47L38.32 9.47L38.32 9.47Q38.35 9.55 38.39 9.63L38.39 9.63L38.39 9.65L38.39 9.65Q38.46 9.79 38.52 9.81L38.52 9.81L38.52 9.81Q38.58 9.84 38.65 9.84L38.65 9.84L38.65 9.84Q38.72 9.84 38.88 9.70L38.88 9.70L38.88 9.70Q39.05 9.56 39.27 8.97L39.27 8.97L39.27 8.97Q39.42 8.51 39.51 8.05L39.51 8.05L39.51 8.05Q39.61 7.59 39.61 7.11L39.61 7.11ZM44.88 5.49L44.88 5.49L44.88 5.49Q45.07 5.49 45.05 5.59L45.05 5.59L45.05 5.59Q45.04 5.70 45.04 5.87L45.04 5.87L45.04 5.87Q45.04 5.89 45.03 5.96L45.03 5.96L45.03 5.96Q45.02 6.02 45.00 6.13L45.00 6.13L45.00 6.13Q44.97 6.24 44.93 6.44L44.93 6.44L44.93 6.44Q44.88 6.64 44.80 6.93L44.80 6.93L44.80 6.93Q44.53 8.01 44.23 8.83L44.23 8.83L44.23 8.83Q44.07 9.24 43.92 9.53L43.92 9.53L43.92 9.53Q43.78 9.81 43.64 10.01L43.64 10.01L43.64 10.01Q43.26 10.54 42.69 10.54L42.69 10.54L42.69 10.54Q42.04 10.54 41.58 9.87L41.58 9.87L41.58 9.87Q41.16 9.24 41.16 8.34L41.16 8.34L41.16 8.34Q41.16 7.62 41.26 6.87L41.26 6.87L41.26 6.87Q41.37 6.13 41.54 5.54L41.54 5.54L41.54 5.54Q41.59 5.33 41.67 5.11L41.67 5.11L41.67 5.11Q41.75 4.89 41.86 4.70L41.86 4.70L41.86 4.70Q41.97 4.51 42.11 4.39L42.11 4.39L42.11 4.39Q42.25 4.27 42.45 4.27L42.45 4.27L42.45 4.27Q42.84 4.27 43.18 4.56L43.18 4.56L43.18 4.56Q43.33 4.72 43.43 4.94L43.43 4.94L43.43 4.94Q43.53 5.17 43.53 5.33L43.53 5.33L43.53 5.33Q43.53 5.61 43.47 5.95L43.47 5.95L43.47 5.95Q43.41 6.29 43.33 6.62L43.33 6.62L43.33 6.62Q43.25 6.94 43.14 7.22L43.14 7.22L43.14 7.22Q43.04 7.49 42.92 7.66L42.92 7.66L42.92 7.66Q42.85 7.78 42.73 7.91L42.73 7.91L42.73 7.91Q42.60 8.04 42.47 8.11L42.47 8.11L42.47 8.11Q42.34 8.19 42.22 8.20L42.22 8.20L42.22 8.20Q42.10 8.20 42.01 8.09L42.01 8.09L42.01 8.09Q41.99 8.20 42.00 8.39L42.00 8.39L42.00 8.39Q42.01 8.57 42.04 8.74L42.04 8.74L42.04 8.74Q42.07 8.92 42.11 9.07L42.11 9.07L42.11 9.07Q42.15 9.23 42.18 9.30L42.18 9.30L42.18 9.30Q42.29 9.53 42.48 9.65L42.48 9.65L42.48 9.65Q42.66 9.77 42.73 9.77L42.73 9.77L42.73 9.77Q42.87 9.77 43.00 9.56L43.00 9.56L43.00 9.56Q43.13 9.35 43.34 9.03L43.34 9.03L43.34 9.03Q43.58 8.65 43.88 7.97L43.88 7.97L43.88 7.97Q44.17 7.28 44.41 6.50L44.41 6.50L44.41 6.50Q44.45 6.34 44.48 6.20L44.48 6.20L44.48 6.20Q44.52 6.05 44.56 5.89L44.56 5.89L44.56 5.89Q44.63 5.49 44.88 5.49ZM42.69 5.19L42.69 5.19L42.69 5.19Q42.57 5.50 42.48 5.75L42.48 5.75L42.48 5.75Q42.39 5.99 42.31 6.22L42.31 6.22L42.31 6.22Q42.22 6.45 42.17 6.69L42.17 6.69L42.17 6.69Q42.11 6.93 42.10 7.22L42.10 7.22L42.10 7.22Q42.28 7.21 42.41 6.97L42.41 6.97L42.41 6.97Q42.55 6.73 42.59 6.54L42.59 6.54L42.59 6.54Q42.64 6.26 42.71 5.97L42.71 5.97L42.71 5.97Q42.77 5.68 42.77 5.38L42.77 5.38L42.77 5.38Q42.77 5.31 42.75 5.20L42.75 5.20L42.75 5.20Q42.73 5.10 42.69 5.19Z"></path></g><!----><g data-v-423bf9ae="" id="f66ac4a8-b77e-41bd-840d-bb68679c9a06" transform="matrix(1.0604804754257202,0,0,1.0604804754257202,30.550195693969727,-7.45761775970459)" stroke="none" fill="white"><path d="M49.666 92.435c-22.656 0-41.091-18.43-41.091-41.086 0-22.648 18.435-41.082 41.091-41.088 1.594 0 3.274.119 5.283.373l3.085.391-.45 3.078c-.087.586-.157.994-.157 1.422 0 5.27 4.288 9.557 9.558 9.557.879 0 1.819-.164 2.879-.504l3.144-1.012.756 3.217c.619 2.629 2.365 4.879 4.795 6.182l1.845.988-.309 2.457c-.034.26-.08.516-.08.779 0 4.711 3.394 8.66 8.071 9.398l2.459.391.148 3.053c.029.438.058.873.058 1.318-.001 22.656-18.432 41.086-41.085 41.086zm0-76.073c-19.293.004-34.989 15.699-34.989 34.986 0 19.291 15.694 34.986 34.989 34.986 19.069 0 34.624-15.336 34.979-34.32a15.545 15.545 0 0 1-10.731-14.773 15.635 15.635 0 0 1-5.101-6.186 13.55 13.55 0 0 1-1.828.127c-8.336 0-15.17-6.549-15.631-14.77a29.315 29.315 0 0 0-1.688-.05z"></path><path d="M51.13 66.601c1.867 2.66 4.42 4.695 7.478 5.805 1.082.395 2.739-.016 3.47-.92 1.51-1.85 2.766-3.754 3.014-6.186.229-2.26-1.121-4.457-3.123-5.459-1.27-.631-2.566-.836-3.971-.953-1.454-.121-2.483.338-3.601 1.227-.904.725-1.808 1.441-2.712 2.168-1.521 1.221-1.263 3.783 0 5.043 1.486 1.49 3.527 1.215 5.043 0 .996-.787 1.978-1.584 2.971-2.379-.84.354-1.681.697-2.521 1.047.401.006.799.021 1.201.055-.694-.055.442.162.596.207-.889-.293.244.383-.555-.307.253.279.189.189-.189-.25-.206-.559-.261-.658-.16-.299-.246-.986-.185.117-.025-.82-.036.217-.454 1.178-.084.383-.128.275-.292.531-.45.799-.116.188-.244.369-.369.551a9.097 9.097 0 0 1-.105.133c1.157-.309 2.309-.613 3.466-.916-.973-.354.614.328-.401-.201-.464-.238-.894-.539-1.315-.836.181.152.104.082-.237-.201a11.578 11.578 0 0 1-.594-.551c-.121-.113-.918-1.086-.664-.732-1.121-1.592-3.099-2.326-4.882-1.281-1.576.919-2.407 3.281-1.281 4.873zM60.814 42.579c2.252 1.762 3.706 4.143 5.387 6.412 1.623-1.625 3.251-3.258 4.874-4.877-2.194-1.553-4.763-1.863-7.13-2.973.548 1.342 1.094 2.682 1.644 4.02.393-1.381.788-2.766 1.183-4.158 1.27-4.43-5.614-6.312-6.877-1.896-.397 1.387-.792 2.775-1.189 4.166-.404 1.428.222 3.355 1.64 4.021 2.347 1.102 5.005 1.469 7.137 2.973 2.852 2.01 6.993-2.027 4.873-4.879-2.005-2.715-3.798-5.746-6.494-7.855-1.529-1.195-3.55-1.498-5.041 0-1.253 1.251-1.545 3.843-.007 5.046zM36.346 68.124c0 .654-.007 1.307-.046 1.963-.038.439-.038.455-.002.037-.022.111-.37 1.039-.06.367 1.025-.594 2.053-1.18 3.083-1.771a13.348 13.348 0 0 1-.87-.037c.981.078-.032-.049-.271-.121.867.266.321.148.062-.004-.311-.213-.233-.158.229.176-.252-.271-.201-.186.148.254-.126-.168-.227-.363-.327-.555.471.912.037-.016-.039-.289-.036-.18-.072-.354-.1-.527.059.471.065.492.022.062-.043-.443-.043-.893-.048-1.332-1.505 1.146-3.01 2.289-4.512 3.438 1.781.592 3.564 1.189 5.348 1.781 1.847.617 3.893-.693 4.386-2.49.536-1.945-.644-3.77-2.489-4.383-1.78-.596-3.563-1.189-5.347-1.785-2.208-.732-4.532 1.209-4.514 3.439.021 2.143.232 4.643 1.594 6.412 1.691 2.197 3.983 3.057 6.729 3.098 1.155.016 2.575-.67 3.073-1.771.895-1.938 1.082-3.842 1.086-5.957-.001-4.603-7.13-4.603-7.135-.005zM33.688 45.544c-.082.621.913-1.98.678-1.309.247-.703.309-1.4.409-2.135.212-1.607-1.259-2.984-2.619-3.441-.78-.26-1.607-.287-2.391-.545-1.434-.479-3.343.277-4.025 1.639-2.009 3.99-5.591 10.154-3.214 14.711 1.872 3.584 6.42 2.516 9.18.867 2.631-1.564 5.982-4.395 4.279-7.799-2.292-4.588-9.107.172-11.713 1.734 1.783 1.025 3.575 2.053 5.361 3.078.038-1.158.483-2.227.621-3.395.228-1.953-1.549-3.803-2.665-5.154.35.838.699 1.682 1.046 2.52-.096.209-.188.416-.283.621-.712.545-1.42 1.088-2.13 1.639-.722.297-.176.016.253-.002.938-.043 1.706-.328 2.532-.766-.918.121-1.833.244-2.749.361l2.918.814c4.437 1.24 6.317-5.639 1.893-6.877l-2.918-.814a3.544 3.544 0 0 0-1.895 0c-2.772.76.904.174-.466.16-1.519-.02-2.706.689-3.597 1.879-.634.85-.741 1.963-.693 2.984.075 1.525 1.004 2.326 1.787 3.504-.396-.6.097-2.1-.354-.709-.338 1.027-.402 2.168-.438 3.234-.089 2.705 3.096 4.447 5.361 3.084 1.463-.871 2.929-1.732 4.466-2.463.855-.4-.544.145.589-.217.35-.111 1.002-.137-.399.018-1.402.143-3.08-1.68-3.167-3.346-.019-.363.345-1.414.388-1.506-.134.264-.552.725.295-.342-.212.268-.454.5-.705.732-.11.102-.222.197-.338.291-.667.561.582-.436.094-.066-.359.266-.738.508-1.124.744a12.49 12.49 0 0 1-1.029.531c1.189-.543-.048-.02-.427.055 1.148-.229.765-.082.434-.07-.765.025.87.18.372.049 1.027.277 1.347.848 1.582 1.533-.096-.275-.107-.848.016.338a4.637 4.637 0 0 1 .005-.773c.037-.533-.155.773.064-.273.084-.4.193-.797.314-1.195.626-2.131 1.614-4.133 2.607-6.109-1.343.551-2.685 1.094-4.027 1.639.783.262 1.607.285 2.389.547-.873-1.146-1.747-2.293-2.617-3.439.082-.621-.911 1.982-.673 1.311-.249.703-.315 1.4-.409 2.137-.254 1.93 1.817 3.564 3.564 3.564 2.139-.005 3.313-1.647 3.568-3.573zM41.796 45.931c1.58 1.523 3.648 2.682 5.911 2.586 2.055-.092 4.189-1.162 5.137-3.064 1.087-2.174.69-4.488-.936-6.27-1.703-1.875-4.621-2.283-6.993-2.311-1.5-.021-3.135 1.092-3.443 2.615-.196.99-.395 1.98-.596 2.971-.379 1.906.521 3.844 2.495 4.389 1.77.486 4.003-.582 4.386-2.492.197-.99.397-1.98.597-2.973-1.151.873-2.293 1.748-3.438 2.615.338.006.664.02 1.004.039.43.047.407.035-.07-.023.176.025.35.059.519.102.248.053 1.273.434.224-.012.224.096.436.229.639.367-.84-.572-.477-.377-.265-.139-.397-.555-.505-.684-.328-.389-.247-.662-.322-.828-.211-.5.167.508-.031-1.107-.07-.361.128-.746.15-.949.055-.605-.112.33-.036.158.227-.52-.138.268-.507.578.273-.326-.5.58.674-.445.222-.148-.669.438.753-.252.219-.08-.808.256.8-.045.203-.016-.29.012-.876-.117.288.066-.271-.047-1.082-.361-.036.078a5.36 5.36 0 0 1-.74-.414c-.306-.219-.253-.18.155.117a12.27 12.27 0 0 1-.384-.352c-1.395-1.348-3.648-1.395-5.041 0-1.361 1.362-1.401 3.702-.003 5.05zM76.012 14.702c4.601 0 4.601-7.137 0-7.137-4.599 0-4.599 7.137 0 7.137zM84.334 24.999c4.599 0 4.599-7.131 0-7.131-4.601 0-4.601 7.131 0 7.131zM89.487 42.456c2.584 0 2.584-4.004 0-4.004-2.585 0-2.585 4.004 0 4.004z"></path></g><!----></svg>